<svg xmlns="http://www.w3.org/2000/svg" width="192" height="192" viewBox="0 0 192 192">
  <defs>
    <linearGradient id="grad1" x1="0%" y1="0%" x2="100%" y2="100%">
      <stop offset="0%" style="stop-color:#667eea;stop-opacity:1" />
      <stop offset="100%" style="stop-color:#764ba2;stop-opacity:1" />
    </linearGradient>
    <linearGradient id="grad2" x1="0%" y1="0%" x2="100%" y2="100%">
      <stop offset="0%" style="stop-color:#4CAF50;stop-opacity:1" />
      <stop offset="100%" style="stop-color:#45a049;stop-opacity:1" />
    </linearGradient>
  </defs>
  
  <!-- Background circle -->
  <circle cx="96" cy="96" r="88" fill="url(#grad1)" stroke="#fff" stroke-width="8"/>
  
  <!-- Camera body -->
  <rect x="60" y="70" width="72" height="48" rx="8" fill="#fff" opacity="0.9"/>
  
  <!-- Camera lens -->
  <circle cx="96" cy="94" r="18" fill="url(#grad2)" stroke="#fff" stroke-width="3"/>
  <circle cx="96" cy="94" r="12" fill="#fff" opacity="0.3"/>
  
  <!-- Camera flash -->
  <rect x="115" y="75" width="8" height="6" rx="2" fill="#fff" opacity="0.8"/>
  
  <!-- Camera viewfinder -->
  <rect x="108" y="85" width="6" height="4" rx="1" fill="#fff" opacity="0.6"/>
  
  <!-- Food elements -->
  <circle cx="76" cy="130" r="8" fill="#FF6B6B" opacity="0.8"/>
  <circle cx="92" cy="135" r="6" fill="#4ECDC4" opacity="0.8"/>
  <circle cx="108" cy="132" r="7" fill="#45B7D1" opacity="0.8"/>
  <circle cx="116" cy="145" r="5" fill="#FFA07A" opacity="0.8"/>
  
  <!-- Sparkle effects -->
  <g fill="#fff" opacity="0.6">
    <circle cx="130" cy="45" r="2"/>
    <circle cx="145" cy="60" r="1.5"/>
    <circle cx="40" cy="55" r="1.5"/>
    <circle cx="55" cy="40" r="2"/>
    <circle cx="150" cy="130" r="1.5"/>
    <circle cx="35" cy="140" r="2"/>
  </g>
  
  <!-- Activity indicators -->
  <g stroke="#fff" stroke-width="2" fill="none" opacity="0.4">
    <path d="M140 105 L148 110 L140 115" stroke-linecap="round"/>
    <path d="M50 105 L42 110 L50 115" stroke-linecap="round"/>
    <circle cx="96" cy="150" r="3"/>
  </g>
</svg>
